<?xml version="1.0" encoding="utf-8"?>
<!-- Generator: Adobe Illustrator 25.0.0, SVG Export Plug-In . SVG Version: 6.00 Build 0)  -->
<svg version="1.1" id="Livello_1" xmlns="http://www.w3.org/2000/svg" xmlns:xlink="http://www.w3.org/1999/xlink" x="0px" y="0px"
	 viewBox="0 0 676 537" style="enable-background:new 0 0 676 537;" xml:space="preserve">
<style type="text/css">
	.st0{fill:#CCCCCC;}
	.st1{fill:#B3B3B3;}
	.st2{fill:none;}
	.st3{fill:#F8766D;fill-opacity:0.9;stroke:#E6E6E6;stroke-width:0.5;stroke-miterlimit:10;}
	.st4{fill:#DE8C00;fill-opacity:0.9;stroke:#E6E6E6;stroke-width:0.5;stroke-miterlimit:10;}
	.st5{fill:#B79F00;fill-opacity:0.9;stroke:#E6E6E6;stroke-width:0.5;stroke-miterlimit:10;}
	.st6{fill:#7CAE00;fill-opacity:0.9;stroke:#E6E6E6;stroke-width:0.5;stroke-miterlimit:10;}
	.st7{fill:#00BA38;fill-opacity:0.9;stroke:#E6E6E6;stroke-width:0.5;stroke-miterlimit:10;}
	.st8{fill:#00C08B;fill-opacity:0.9;stroke:#E6E6E6;stroke-width:0.5;stroke-miterlimit:10;}
	.st9{fill:#00BFC4;fill-opacity:0.9;stroke:#E6E6E6;stroke-width:0.5;stroke-miterlimit:10;}
	.st10{fill:#00B4F0;fill-opacity:0.9;stroke:#E6E6E6;stroke-width:0.5;stroke-miterlimit:10;}
	.st11{fill:#619CFF;fill-opacity:0.9;stroke:#E6E6E6;stroke-width:0.5;stroke-miterlimit:10;}
	.st12{fill:#C77CFF;fill-opacity:0.9;stroke:#E6E6E6;stroke-width:0.5;stroke-miterlimit:10;}
	.st13{fill:#F564E3;fill-opacity:0.9;stroke:#E6E6E6;stroke-width:0.5;stroke-miterlimit:10;}
	.st14{fill:#FF64B0;fill-opacity:0.9;stroke:#E6E6E6;stroke-width:0.5;stroke-miterlimit:10;}
	.st15{enable-background:new    ;}
	.st16{font-family:'Avenir-Medium';}
	.st17{font-size:7px;}
	
		.st18{opacity:0.69;fill:none;stroke:#000000;stroke-width:1.28;stroke-linejoin:round;stroke-miterlimit:10;stroke-opacity:0.8;enable-background:new    ;}
	.st19{fill:none;stroke:#000000;stroke-width:1.28;stroke-linejoin:round;stroke-miterlimit:10;stroke-opacity:0.8;}
	.st20{opacity:0.69;enable-background:new    ;}
	.st21{font-family:'Arial-BoldMT';}
	.st22{font-size:6.1452px;}
	.st23{fill:#00C08B;stroke:#E6E6E6;stroke-width:0.5;stroke-miterlimit:10;}
	
		.st24{opacity:0.61;fill:none;stroke:#000000;stroke-width:1.28;stroke-linejoin:round;stroke-miterlimit:10;enable-background:new    ;}
</style>
<rect class="st0" width="676" height="537"/>
<g>
	
		<image style="overflow:visible;opacity:0.25;" width="482" height="453" xlink:href="FB4B12D64FEE2007.png"  transform="matrix(1 0 0 1 108.3394 49.3538)">
	</image>
	<g>
		<path class="st1" d="M536.7,479.5H148.3c-17.3,0-31.3-14-31.3-31.3V88.8c0-17.3,14-31.3,31.3-31.3h388.4c17.3,0,31.3,14,31.3,31.3
			v359.3C567.9,465.4,554,479.5,536.7,479.5z"/>
	</g>
</g>
<g>
	<g>
		<rect x="121.4" y="59.6" class="st2" width="433.2" height="417.8"/>
		<rect x="121.4" y="59.6" class="st2" width="433.2" height="417.8"/>
		<rect x="121.4" y="59.6" class="st2" width="433.2" height="417.8"/>
		<rect x="121.4" y="59.6" class="st2" width="433.2" height="417.8"/>
		<rect x="121.4" y="59.6" class="st2" width="433.2" height="417.8"/>
		<rect x="121.4" y="59.6" class="st2" width="433.2" height="417.8"/>
		<rect x="121.4" y="59.6" class="st2" width="433.2" height="417.8"/>
		<rect x="121.4" y="59.6" class="st2" width="433.2" height="417.8"/>
		<rect x="121.4" y="59.6" class="st2" width="433.2" height="417.8"/>
		<rect x="121.4" y="59.6" class="st2" width="433.2" height="417.8"/>
		<rect x="121.4" y="59.6" class="st2" width="433.2" height="417.8"/>
		<rect x="121.4" y="59.6" class="st2" width="433.2" height="417.8"/>
		<rect x="121.4" y="59.6" class="st2" width="433.2" height="417.8"/>
		<rect x="121.4" y="59.6" class="st2" width="433.2" height="417.8"/>
		<rect x="121.4" y="59.6" class="st2" width="433.2" height="417.8"/>
		<rect x="121.4" y="59.6" class="st2" width="433.2" height="417.8"/>
		<rect x="121.4" y="59.6" class="st2" width="433.2" height="417.8"/>
		<rect x="121.4" y="59.6" class="st2" width="433.2" height="417.8"/>
		<rect x="121.4" y="59.6" class="st2" width="433.2" height="417.8"/>
		<rect x="121.4" y="59.6" class="st2" width="433.2" height="417.8"/>
		<rect x="121.4" y="59.6" class="st2" width="433.2" height="417.8"/>
		<rect x="121.4" y="59.6" class="st2" width="433.2" height="417.8"/>
		<rect x="121.4" y="59.6" class="st2" width="433.2" height="417.8"/>
		<rect x="121.4" y="59.6" class="st2" width="433.2" height="417.8"/>
		<rect x="121.4" y="59.6" class="st2" width="433.2" height="417.8"/>
		<rect x="121.4" y="59.6" class="st2" width="433.2" height="417.8"/>
		<rect x="121.4" y="59.6" class="st2" width="433.2" height="417.8"/>
		<rect x="121.4" y="59.6" class="st2" width="433.2" height="417.8"/>
		<rect x="121.4" y="59.6" class="st2" width="433.2" height="417.8"/>
		<rect x="121.4" y="59.6" class="st2" width="433.2" height="417.8"/>
		<rect x="121.4" y="59.6" class="st2" width="433.2" height="417.8"/>
		<rect x="121.4" y="59.6" class="st2" width="433.2" height="417.8"/>
		<rect x="121.4" y="59.6" class="st2" width="433.2" height="417.8"/>
		<rect x="121.4" y="59.6" class="st2" width="433.2" height="417.8"/>
		<rect x="121.4" y="59.6" class="st2" width="433.2" height="417.8"/>
		<rect x="121.4" y="59.6" class="st2" width="433.2" height="417.8"/>
		<rect x="121.4" y="59.6" class="st2" width="433.2" height="417.8"/>
		<rect x="121.4" y="59.6" class="st2" width="433.2" height="417.8"/>
		<rect x="121.4" y="59.6" class="st2" width="433.2" height="417.8"/>
		<rect x="121.4" y="59.6" class="st2" width="433.2" height="417.8"/>
		<rect x="121.4" y="59.6" class="st2" width="433.2" height="417.8"/>
		<rect x="121.4" y="59.6" class="st2" width="433.2" height="417.8"/>
		<rect x="121.4" y="59.6" class="st2" width="433.2" height="417.8"/>
		<rect x="121.4" y="59.6" class="st2" width="433.2" height="417.8"/>
		<rect x="121.4" y="59.6" class="st2" width="433.2" height="417.8"/>
		<rect x="121.4" y="59.6" class="st2" width="433.2" height="417.8"/>
		<rect x="121.4" y="59.6" class="st2" width="433.2" height="417.8"/>
		<rect x="121.4" y="59.6" class="st2" width="433.2" height="417.8"/>
		<rect x="121.4" y="59.6" class="st2" width="433.2" height="417.8"/>
		<rect x="121.4" y="59.6" class="st2" width="433.2" height="417.8"/>
		<rect x="121.4" y="59.6" class="st2" width="433.2" height="417.8"/>
		<rect x="121.4" y="59.6" class="st2" width="433.2" height="417.8"/>
		<rect x="121.4" y="59.6" class="st2" width="433.2" height="417.8"/>
		<rect x="121.4" y="59.6" class="st2" width="433.2" height="417.8"/>
		<rect x="121.4" y="59.6" class="st2" width="433.2" height="417.8"/>
		<rect x="121.4" y="59.6" class="st2" width="433.2" height="417.8"/>
		<rect x="121.4" y="59.6" class="st2" width="433.2" height="417.8"/>
		<rect x="121.4" y="59.6" class="st2" width="433.2" height="417.8"/>
		<rect x="121.4" y="59.6" class="st2" width="433.2" height="417.8"/>
		<rect x="121.4" y="59.6" class="st2" width="433.2" height="417.8"/>
		<rect x="121.4" y="59.6" class="st2" width="433.2" height="417.8"/>
		<rect x="121.4" y="59.6" class="st2" width="433.2" height="417.8"/>
		<rect x="121.4" y="59.6" class="st2" width="433.2" height="417.8"/>
		<rect x="121.4" y="59.6" class="st2" width="433.2" height="417.8"/>
		<rect x="121.4" y="59.6" class="st2" width="433.2" height="417.8"/>
		<rect x="121.4" y="59.6" class="st2" width="433.2" height="417.8"/>
		<rect x="121.4" y="59.6" class="st2" width="433.2" height="417.8"/>
		<rect x="121.4" y="59.6" class="st2" width="433.2" height="417.8"/>
		<rect x="121.4" y="59.6" class="st2" width="433.2" height="417.8"/>
		<rect x="121.4" y="59.6" class="st2" width="433.2" height="417.8"/>
		<rect x="121.4" y="59.6" class="st2" width="433.2" height="417.8"/>
		<rect x="121.4" y="59.6" class="st2" width="433.2" height="417.8"/>
		<rect x="121.4" y="59.6" class="st2" width="433.2" height="417.8"/>
		<rect x="121.4" y="59.6" class="st2" width="433.2" height="417.8"/>
		<rect x="121.4" y="59.6" class="st2" width="433.2" height="417.8"/>
		<rect x="121.4" y="59.6" class="st2" width="433.2" height="417.8"/>
		<rect x="121.4" y="59.6" class="st2" width="433.2" height="417.8"/>
		<rect x="121.4" y="59.6" class="st2" width="433.2" height="417.8"/>
		<rect x="121.4" y="59.6" class="st2" width="433.2" height="417.8"/>
		<rect x="121.4" y="59.6" class="st2" width="433.2" height="417.8"/>
		<rect x="121.4" y="59.6" class="st2" width="433.2" height="417.8"/>
		<rect x="121.4" y="59.6" class="st2" width="433.2" height="417.8"/>
		<rect x="121.4" y="59.6" class="st2" width="433.2" height="417.8"/>
		<rect x="121.4" y="59.6" class="st2" width="433.2" height="417.8"/>
		<rect x="121.4" y="59.6" class="st2" width="433.2" height="417.8"/>
		<rect x="121.4" y="59.6" class="st2" width="433.2" height="417.8"/>
		<rect x="121.4" y="59.6" class="st2" width="433.2" height="417.8"/>
		<rect x="121.4" y="59.6" class="st2" width="433.2" height="417.8"/>
		<rect x="121.4" y="59.6" class="st2" width="433.2" height="417.8"/>
		<rect x="121.4" y="59.6" class="st2" width="433.2" height="417.8"/>
		<rect x="121.4" y="59.6" class="st2" width="433.2" height="417.8"/>
		<rect x="121.4" y="59.6" class="st2" width="433.2" height="417.8"/>
		<rect x="121.4" y="59.6" class="st2" width="433.2" height="417.8"/>
		<rect x="121.4" y="59.6" class="st2" width="433.2" height="417.8"/>
		<rect x="121.4" y="59.6" class="st2" width="433.2" height="417.8"/>
		<rect x="121.4" y="59.6" class="st2" width="433.2" height="417.8"/>
		<rect x="121.4" y="59.6" class="st2" width="433.2" height="417.8"/>
		<rect x="121.4" y="59.6" class="st2" width="433.2" height="417.8"/>
		<rect x="121.4" y="59.6" class="st2" width="433.2" height="417.8"/>
		<g>
			<polygon class="st3" points="336,158.6 345.2,159.1 344.6,166.4 344,173.8 343.3,181.3 342.7,188.7 342.1,196.1 341.6,203.5 
				341,210.9 340.4,218.3 335.7,218.2 335.8,210.7 335.8,203.3 335.8,195.9 335.9,188.4 335.9,180.9 335.9,173.6 336,166.1 			"/>
			<polygon class="st4" points="371.5,177.6 379.2,180.5 376,187.6 372.8,194.7 369.6,201.7 366.4,208.8 363.2,216 360.1,223.1 
				355.8,221.4 358.4,214.1 361.1,206.8 363.6,199.5 366.3,192.3 369,185 			"/>
			<polygon class="st4" points="379,183 386.2,186.4 382.6,192.9 379,199.4 375.4,205.8 371.8,212.3 368.2,218.7 364.6,225.2 
				360.5,223.2 363.5,216.6 366.7,209.8 369.8,203.1 372.8,196.5 376,189.7 			"/>
			<polygon class="st4" points="393.4,175.3 401.2,179.8 397.2,185.8 393.1,191.7 389.1,197.7 385.1,203.8 381.1,209.7 377.1,215.7 
				373,221.7 369.1,227.7 365.1,225.4 368.6,219.1 372.2,212.9 375.8,206.7 379.2,200.4 382.8,194.1 386.3,187.9 389.9,181.6 			"/>
			<polygon class="st5" points="414.7,207.9 419.9,213.7 413.9,218.2 407.9,222.8 401.9,227.3 396,231.8 390,236.3 384,240.9 
				381,237.5 386.6,232.6 392.2,227.6 397.9,222.6 403.5,217.7 409.1,212.8 			"/>
			<polygon class="st6" points="470.2,221.3 474.1,231.1 466.8,233.5 459.5,236 452.2,238.4 444.9,240.9 437.6,243.3 430.3,245.8 
				422.9,248.3 415.6,250.7 408.3,253.2 401,255.6 393.7,258.1 392.1,254 399.2,251 406.3,248 413.4,245 420.5,242 427.6,239.1 
				434.7,236.2 441.8,233.2 448.9,230.2 456,227.2 463.1,224.2 			"/>
			<polygon class="st6" points="440.7,243.3 443,250.9 435.1,252.8 427.1,254.8 419.1,256.9 411.2,258.8 403.2,260.8 395.2,262.7 
				393.9,258.5 401.7,256 409.5,253.4 417.3,250.9 425.1,248.4 432.9,245.8 			"/>
			<polygon class="st6" points="468.4,245.7 470.5,255.3 463.1,256.5 455.6,257.7 448.2,259 440.8,260.2 433.4,261.4 426,262.7 
				418.6,263.9 411.1,265.1 403.7,266.3 396.3,267.6 395.3,263.3 402.6,261.5 409.9,259.8 417.3,258 424.5,256.3 431.8,254.5 
				439.2,252.7 446.5,251 453.8,249.2 461.1,247.5 			"/>
			<polygon class="st6" points="457.2,258.5 458.3,267.3 450.7,267.9 443,268.5 435.3,269.2 427.7,269.9 420,270.5 412.3,271.2 
				404.6,271.8 397,272.4 396.4,268 404,266.9 411.6,265.6 419.2,264.5 426.8,263.3 434.4,262 442.1,260.9 449.7,259.7 			"/>
			<polygon class="st7" points="460.7,298.2 458.8,307.2 451.7,305.5 444.7,303.7 437.6,302.1 430.6,300.4 423.5,298.7 416.5,297 
				409.4,295.3 402.4,293.7 395.3,292 396.3,287.6 403.5,288.8 410.6,290 417.8,291.2 424.9,292.3 432.1,293.6 439.2,294.7 
				446.4,295.9 453.6,297.1 			"/>
			<polygon class="st7" points="458.5,308.1 455.9,316.9 449,314.6 442.1,312.4 435.2,310.2 428.3,307.9 421.4,305.7 414.5,303.4 
				407.6,301.2 400.8,298.9 393.9,296.6 395.2,292.4 402.2,294.2 409.3,295.9 416.3,297.7 423.3,299.4 430.4,301.2 437.4,303 
				444.4,304.6 451.5,306.4 			"/>
			<polygon class="st7" points="450.8,316.3 447.5,324.5 440.6,321.6 433.7,318.7 426.8,315.8 419.8,312.9 412.9,310 406,307.1 
				399.1,304.2 392.1,301.3 393.7,297.2 400.9,299.5 408,301.9 415.1,304.3 422.3,306.7 429.4,309.1 436.5,311.5 443.7,313.9 			"/>
			<polygon class="st8" points="425.7,345.9 420.3,352.1 414.6,347.2 409,342.3 403.4,337.4 397.9,332.5 392.2,327.5 386.6,322.6 
				381,317.7 384,314.3 390,318.8 395.9,323.3 401.9,327.9 407.8,332.4 413.8,336.8 419.8,341.4 			"/>
			<polygon class="st9" points="421.3,405.4 411.2,411.2 407.6,404.9 404.1,398.6 400.5,392.4 397,386.1 393.4,379.9 389.9,373.6 
				386.3,367.3 382.8,361.1 379.2,354.8 375.8,348.5 372.2,342.3 368.6,336.1 365.1,329.7 369.1,327.5 373,333.5 377.1,339.5 
				381.1,345.4 385.1,351.5 389.1,357.5 393.1,363.4 397.2,369.4 401.2,375.4 405.2,381.4 409.2,387.4 413.3,393.4 417.3,399.3 			
				"/>
			<polygon class="st9" points="386.7,369.9 379.5,373.3 376.4,366.3 373.2,359.5 370.1,352.6 366.8,345.7 363.6,338.9 360.5,331.9 
				364.6,330 368.3,336.7 372,343.3 375.7,349.9 379.4,356.6 383.1,363.2 			"/>
			<polygon class="st9" points="379.2,374.7 371.5,377.6 369,370.3 366.3,362.9 363.6,355.6 361.1,348.3 358.4,341.1 355.8,333.8 
				360.1,332.2 363.2,339.2 366.4,346.3 369.6,353.4 372.8,360.5 376,367.6 			"/>
			<polygon class="st9" points="371.5,380.1 363.5,382.4 361.7,375.6 359.9,368.9 358.1,362.1 356.3,355.5 354.5,348.7 352.7,341.9 
				350.9,335.2 355.3,333.9 357.6,340.5 359.9,347.1 362.3,353.7 364.5,360.3 366.9,366.9 369.2,373.5 			"/>
			<polygon class="st9" points="362,380.3 354,382 352.7,374.3 351.3,366.7 349.9,359.1 348.7,351.4 347.3,343.8 345.9,336.2 
				350.4,335.3 352.3,342.8 354.3,350.3 356.2,357.8 358.1,365.3 360.1,372.8 			"/>
			<polygon class="st9" points="357.1,405.6 347.2,406.7 346.5,399.7 345.9,392.8 345.3,385.7 344.6,378.8 344,371.8 343.4,364.8 
				342.7,357.8 342.1,350.8 341.5,343.8 340.9,336.8 345.4,336.3 346.6,343.3 347.8,350.1 348.9,357 350,364 351.2,370.9 
				352.4,377.8 353.6,384.8 354.8,391.7 356,398.6 			"/>
			<polygon class="st9" points="344.7,390.2 336,390.6 335.9,382.9 335.9,375.3 335.9,367.7 335.8,360 335.8,352.4 335.8,344.7 
				335.7,337 340.4,336.8 341,344.5 341.6,352.1 342.2,359.8 342.8,367.4 343.4,374.9 344.1,382.6 			"/>
			<polygon class="st9" points="334.9,409.6 324.8,409.2 325.4,402 326,394.7 326.6,387.5 327.2,380.3 327.7,373 328.3,365.8 
				328.9,358.5 329.5,351.3 330.1,344.1 330.7,336.8 335.2,337 335.2,344.3 335.2,351.6 335.1,358.8 335.1,366.1 335.1,373.4 
				335,380.6 335,387.8 335,395 334.9,402.3 			"/>
			<polygon class="st9" points="325.9,384.2 317.7,383.3 319,375.4 320.3,367.6 321.6,359.8 323,351.9 324.3,344.1 325.6,336.3 
				330.2,336.8 329.4,344.7 328.7,352.6 328,360.5 327.3,368.4 326.6,376.3 			"/>
			<polygon class="st10" points="283,391.7 274.4,387.7 277.9,381.3 281.5,374.9 285,368.4 288.6,362 292.1,355.6 295.7,349.2 
				299.2,342.8 302.8,336.4 306.3,330 310.5,331.9 307.4,338.6 304.4,345.3 301.3,351.9 298.3,358.5 295.2,365.2 292.1,371.8 
				289.1,378.5 286,385.1 			"/>
			<polygon class="st10" points="284.6,367.3 277.8,363.4 281.9,357.5 285.9,351.5 290,345.4 293.9,339.5 298,333.5 302,327.5 
				305.9,329.7 302.4,336.1 298.8,342.3 295.3,348.5 291.7,354.8 288.2,361.1 			"/>
			<polygon class="st10" points="269.6,373.9 262.4,368.9 266.9,363.4 271.2,357.8 275.7,352.3 280.1,346.8 284.5,341.2 289,335.7 
				293.4,330.2 297.9,324.6 301.6,327.3 297.6,333.1 293.6,338.9 289.6,344.7 285.6,350.5 281.6,356.4 277.6,362.2 273.7,368.1 			
				"/>
			<polygon class="st11" points="225.2,359.7 219.1,351.6 225.7,347.5 232.2,343.3 238.6,339.2 245.1,335.1 251.6,331 258.1,326.8 
				264.5,322.7 271,318.6 277.5,314.5 284,310.3 286.7,313.9 280.5,318.5 274.4,323.1 268.3,327.6 262.1,332.2 255.9,336.8 
				249.8,341.4 243.6,346 237.5,350.5 231.4,355.1 			"/>
			<polygon class="st11" points="237.2,339 232.7,331.8 239.7,328.1 246.6,324.5 253.6,320.8 260.5,317.1 267.5,313.5 274.5,309.8 
				281.4,306.1 283.8,309.9 277,314.1 270.4,318.2 263.7,322.4 257.1,326.6 250.5,330.7 243.8,334.8 			"/>
			<polygon class="st11" points="239.9,327 236.3,320 243.4,317 250.6,313.9 257.7,310.9 264.8,307.8 272,304.8 279.1,301.7 
				281.2,305.7 274.3,309.3 267.4,312.8 260.5,316.4 253.6,319.9 246.8,323.5 			"/>
			<polygon class="st11" points="234.8,319.7 231.9,312.4 239.4,309.8 247,307.3 254.6,304.8 262.2,302.3 269.6,299.7 277.2,297.2 
				278.9,301.3 271.6,304.4 264.2,307.4 256.8,310.5 249.5,313.6 242.1,316.7 			"/>
			<polygon class="st11" points="218.7,315.8 216.1,307.3 223.6,305.4 231,303.6 238.5,301.7 246,299.9 253.4,298 260.9,296.1 
				268.4,294.3 275.8,292.4 277.1,296.6 269.8,299.1 262.5,301.5 255.2,303.8 247.9,306.2 240.6,308.6 233.3,310.9 226,313.4 			"/>
			<polygon class="st12" points="226.9,277.1 227.3,269.4 235.1,269.9 242.9,270.6 250.7,271.2 258.5,271.8 266.3,272.3 274,272.9 
				273.9,277.3 266,277.3 258.2,277.3 250.4,277.2 242.6,277.2 234.8,277.2 			"/>
			<polygon class="st13" points="220.2,238.9 223.5,230.8 230.4,233.7 237.4,236.5 244.3,239.4 251.2,242.4 258.1,245.3 
				265.1,248.2 272,251.1 278.9,254 277.2,258.1 270.1,255.6 263,253.3 255.8,250.9 248.7,248.4 241.6,246.1 234.4,243.7 
				227.3,241.3 			"/>
			<polygon class="st13" points="236.3,235.2 239.9,228.2 246.8,231.8 253.6,235.3 260.5,238.9 267.4,242.4 274.3,246 281.2,249.5 
				279.1,253.5 272,250.5 264.8,247.4 257.7,244.3 250.6,241.2 243.4,238.3 			"/>
			<polygon class="st13" points="238.1,226.2 242.3,219.4 249.2,223.8 256.1,228.1 263,232.4 269.9,236.7 276.8,241 283.8,245.3 
				281.4,249.1 274.2,245.3 267,241.5 259.8,237.6 252.6,233.9 245.3,230.1 			"/>
			<polygon class="st14" points="238.2,174.9 246.4,168.1 251,173.8 255.6,179.5 260.3,185.2 265,190.9 269.5,196.6 274.3,202.4 
				278.9,208.1 283.6,213.8 288.2,219.4 292.8,225.1 297.5,230.8 293.9,233.7 288.9,228.3 283.9,223 278.7,217.6 273.7,212.3 
				268.6,206.9 263.5,201.6 258.5,196.2 253.4,190.9 248.3,185.5 243.3,180.2 			"/>
			<polygon class="st14" points="269.9,195.7 276.5,191.2 280.6,197.3 284.8,203.5 289,209.6 293.2,215.7 297.4,221.8 301.6,228 
				297.9,230.5 293.2,224.7 288.6,218.9 283.9,213.1 279.2,207.3 274.6,201.5 			"/>
			<polygon class="st14" points="268.5,177.8 276.4,173.2 280.1,179.8 283.8,186.3 287.4,192.8 291.1,199.4 294.8,205.9 
				298.5,212.4 302.2,218.9 305.9,225.4 302,227.7 297.8,221.4 293.6,215.2 289.4,208.9 285.2,202.7 281.1,196.5 276.8,190.2 
				272.7,184 			"/>
			<polygon class="st14" points="284.2,185.3 291.5,181.9 294.7,188.8 297.9,195.7 301,202.6 304.2,209.5 307.3,216.4 310.5,223.2 
				306.3,225.2 302.7,218.5 299,211.9 295.3,205.2 291.6,198.7 287.9,192 			"/>
			<polygon class="st14" points="291.3,179.4 299,176.5 301.7,184 304.5,191.5 307.1,199 309.8,206.5 312.6,213.9 315.2,221.4 
				311,223.1 307.7,215.8 304.5,208.5 301.1,201.2 297.9,193.9 294.6,186.6 			"/>
			<polygon class="st14" points="294.8,161.6 303.8,159 305.6,165.7 307.4,172.5 309.2,179.4 311.1,186.1 312.8,192.9 314.7,199.6 
				316.5,206.5 318.3,213.2 320.1,220 315.7,221.3 313.4,214.6 311.1,208 308.7,201.4 306.4,194.7 304.1,188.1 301.7,181.5 
				299.4,174.9 297.1,168.2 			"/>
			<g class="st15">
				<polygon class="st2" points="337.9,146.8 340.7,70.4 348.7,70.7 345.9,147 				"/>
				<text transform="matrix(3.257220e-02 -0.8994 0.9994 3.365294e-02 342.9137 146.9737)" class="st16 st17">Via</text>
				<text transform="matrix(3.257220e-02 -0.8994 0.9994 3.365294e-02 343.1994 139.0863)" class="st16 st17"> </text>
				<text transform="matrix(3.257220e-02 -0.8994 0.9994 3.365294e-02 343.368 134.4296)" class="st16 st17">Carpineto</text>
				<text transform="matrix(3.257220e-02 -0.8994 0.9994 3.365294e-02 344.3008 108.6731)" class="st16 st17"> </text>
				<text transform="matrix(3.257220e-02 -0.8994 0.9994 3.365294e-02 344.4694 104.016)" class="st16 st17">(Trieste):</text>
				<text transform="matrix(3.257220e-02 -0.8994 0.9994 3.365294e-02 345.2817 81.5868)" class="st16 st17"> </text>
				<text transform="matrix(3.257220e-02 -0.8994 0.9994 3.365294e-02 345.4504 76.9297)" class="st16 st17">50</text>
			</g>
			<g class="st15">
				<polygon class="st2" points="376.9,166.8 401.3,105.8 408.8,108.5 384.4,169.5 				"/>
				<text transform="matrix(0.3329 -0.8362 0.9378 0.3472 381.5148 168.5331)" class="st16 st17">Edison</text>
				<text transform="matrix(0.3329 -0.8362 0.9378 0.3472 387.9115 152.4635)" class="st16 st17"> </text>
				<text transform="matrix(0.3329 -0.8362 0.9378 0.3472 390.4281 146.1413)" class="st16 st17">Torviscosa:</text>
				<text transform="matrix(0.3329 -0.8362 0.9378 0.3472 400.985 119.6203)" class="st16 st17"> </text>
				<text transform="matrix(0.3329 -0.8362 0.9378 0.3472 403.5016 113.2981)" class="st16 st17">39</text>
			</g>
			<g class="st15">
				<polygon class="st2" points="385.1,172.6 401.9,139.4 409.1,142.8 392.2,175.9 				"/>
				<text transform="matrix(0.4062 -0.8031 0.9049 0.4256 389.6195 174.7057)" class="st16 st17">Malisana:</text>
				<text transform="matrix(0.4062 -0.8031 0.9049 0.4256 400.3802 153.4293)" class="st16 st17"> </text>
				<text transform="matrix(0.4062 -0.8031 0.9049 0.4256 403.5695 147.1233)" class="st16 st17">37</text>
			</g>
			<g class="st15">
				<polygon class="st2" points="400.9,165.7 442,100.2 448.9,104.1 407.7,169.6 				"/>
				<text transform="matrix(0.476 -0.7638 0.8653 0.5013 405.1514 168.1021)" class="st16 st17">Via</text>
				<text transform="matrix(0.476 -0.7638 0.8653 0.5013 409.2745 161.4861)" class="st16 st17"> </text>
				<text transform="matrix(0.476 -0.7638 0.8653 0.5013 412.0062 157.1028)" class="st16 st17">Carpineto</text>
				<text transform="matrix(0.476 -0.7638 0.8653 0.5013 425.5168 135.4237)" class="st16 st17"> </text>
				<text transform="matrix(0.476 -0.7638 0.8653 0.5013 428.2484 131.0405)" class="st16 st17">(Trieste):</text>
				<text transform="matrix(0.476 -0.7638 0.8653 0.5013 439.9709 112.2304)" class="st16 st17"> </text>
				<text transform="matrix(0.476 -0.7638 0.8653 0.5013 442.7028 107.8469)" class="st16 st17">48</text>
			</g>
			<g class="st15">
				<polygon class="st2" points="424.7,200.7 477.1,158.6 482.2,164.5 429.8,206.6 				"/>
				<text transform="matrix(0.6997 -0.5661 0.6564 0.7544 427.815 204.2108)" class="st16 st17">Edison</text>
				<text transform="matrix(0.6997 -0.5661 0.6564 0.7544 440.9878 193.5531)" class="st16 st17"> </text>
				<text transform="matrix(0.6997 -0.5661 0.6564 0.7544 447.25 188.4865)" class="st16 st17">Torviscosa:</text>
				<text transform="matrix(0.6997 -0.5661 0.6564 0.7544 468.9886 170.8983)" class="st16 st17"> </text>
				<text transform="matrix(0.6997 -0.5661 0.6564 0.7544 475.1795 165.8895)" class="st16 st17">37</text>
			</g>
			<g class="st15">
				<polygon class="st2" points="482.6,218.9 519.7,205.2 522.5,212.4 485.5,226.1 				"/>
				<text transform="matrix(0.844 -0.3124 0.3699 0.9291 484.2643 223.1733)" class="st16 st17">Brugnera:</text>
				<text transform="matrix(0.844 -0.3124 0.3699 0.9291 507.1758 214.6928)" class="st16 st17"> </text>
				<text transform="matrix(0.844 -0.3124 0.3699 0.9291 515.585 211.5802)" class="st16 st17">69</text>
			</g>
			<g class="st15">
				<polygon class="st2" points="452.7,240.7 489.4,229.9 491.7,237.2 455.1,248 				"/>
				<text transform="matrix(0.8633 -0.2545 0.3022 0.9532 454.1279 245.0338)" class="st16 st17">Malisana:</text>
				<text transform="matrix(0.8633 -0.2545 0.3022 0.9532 476.2973 238.4995)" class="st16 st17"> </text>
				<text transform="matrix(0.8633 -0.2545 0.3022 0.9532 484.8846 235.9684)" class="st16 st17">40</text>
			</g>
			<g class="st15">
				<polygon class="st2" points="480.9,245 511,238.9 512.6,246.3 482.5,252.6 				"/>
				<text transform="matrix(0.8817 -0.1807 0.2152 0.9766 481.8553 249.4501)" class="st16 st17">Porcia:</text>
				<text transform="matrix(0.8817 -0.1807 0.2152 0.9766 498.3833 246.0623)" class="st16 st17"> </text>
				<text transform="matrix(0.8817 -0.1807 0.2152 0.9766 505.9773 244.5057)" class="st16 st17">61</text>
			</g>
			<g class="st15">
				<polygon class="st2" points="469.8,258.4 548.9,249.1 549.9,256.6 470.7,265.9 				"/>
				<text transform="matrix(0.8938 -0.1058 0.1263 0.992 470.3055 262.8053)" class="st16 st17">Via</text>
				<text transform="matrix(0.8938 -0.1058 0.1263 0.992 477.8136 261.9164)" class="st16 st17"> </text>
				<text transform="matrix(0.8938 -0.1058 0.1263 0.992 484.4188 261.1344)" class="st16 st17">Carpineto</text>
				<text transform="matrix(0.8938 -0.1058 0.1263 0.992 508.9341 258.2321)" class="st16 st17"> </text>
				<text transform="matrix(0.8938 -0.1058 0.1263 0.992 515.4472 257.461)" class="st16 st17">(Trieste):</text>
				<text transform="matrix(0.8938 -0.1058 0.1263 0.992 536.8883 254.9226)" class="st16 st17"> </text>
				<text transform="matrix(0.8938 -0.1058 0.1263 0.992 543.4024 254.1514)" class="st16 st17">50</text>
			</g>
			<g class="st15">
				<polygon class="st2" points="472.5,302.2 511.4,310.1 509.7,317.6 471,309.6 				"/>
				<text transform="matrix(0.8817 0.1807 -0.2152 0.9766 471.6002 306.5576)" class="st16 st17">Brugnera:</text>
				<text transform="matrix(0.8817 0.1807 -0.2152 0.9766 495.4548 311.4472)" class="st16 st17"> </text>
				<text transform="matrix(0.8817 0.1807 -0.2152 0.9766 504.4781 313.2968)" class="st16 st17">53</text>
			</g>
			<g class="st15">
				<polygon class="st2" points="470.1,313 499.5,321.7 497.1,328.9 467.7,320.3 				"/>
				<text transform="matrix(0.8633 0.2545 -0.3022 0.9532 468.6632 317.3126)" class="st16 st17">Porcia:</text>
				<text transform="matrix(0.8633 0.2545 -0.3022 0.9532 484.8748 322.0915)" class="st16 st17"> </text>
				<text transform="matrix(0.8633 0.2545 -0.3022 0.9532 492.2346 324.2607)" class="st16 st17">53</text>
			</g>
			<g class="st15">
				<polygon class="st2" points="461.9,321.8 536.3,349.2 533.5,356.3 459,328.9 				"/>
				<text transform="matrix(0.844 0.3124 -0.3699 0.9291 460.2611 325.9073)" class="st16 st17">Via</text>
				<text transform="matrix(0.844 0.3124 -0.3699 0.9291 467.3838 328.5431)" class="st16 st17"> </text>
				<text transform="matrix(0.844 0.3124 -0.3699 0.9291 473.3897 330.7667)" class="st16 st17">Carpineto</text>
				<text transform="matrix(0.844 0.3124 -0.3699 0.9291 496.6449 339.3738)" class="st16 st17"> </text>
				<text transform="matrix(0.844 0.3124 -0.3699 0.9291 502.6517 341.5977)" class="st16 st17">(Trieste):</text>
				<text transform="matrix(0.844 0.3124 -0.3699 0.9291 522.9027 349.0934)" class="st16 st17"> </text>
				<text transform="matrix(0.844 0.3124 -0.3699 0.9291 528.9088 351.3165)" class="st16 st17">49</text>
			</g>
			<g class="st15">
				<polygon class="st2" points="434.5,354.4 464.9,379 459.8,384.9 429.4,360.3 				"/>
				<text transform="matrix(0.6997 0.5661 -0.6564 0.7544 431.4131 357.9249)" class="st16 st17">Brugnera:</text>
				<text transform="matrix(0.6997 0.5661 -0.6564 0.7544 450.6316 373.4751)" class="st16 st17"> </text>
				<text transform="matrix(0.6997 0.5661 -0.6564 0.7544 457.0385 378.6587)" class="st16 st17">43</text>
			</g>
			<g class="st15">
				<polygon class="st2" points="425.4,417 445.8,449.7 439,453.7 418.6,420.9 				"/>
				<text transform="matrix(0.476 0.7638 -0.8653 0.5013 421.1513 419.4207)" class="st16 st17">Brugnera:</text>
				<text transform="matrix(0.476 0.7638 -0.8653 0.5013 434.4137 440.7016)" class="st16 st17"> </text>
				<text transform="matrix(0.476 0.7638 -0.8653 0.5013 438.288 446.9183)" class="st16 st17">78</text>
			</g>
			<g class="st15">
				<polygon class="st2" points="391.5,380.9 408.2,414.1 401.1,417.4 384.4,384.3 				"/>
				<text transform="matrix(0.4062 0.8031 -0.9049 0.4256 387.0252 383.042)" class="st16 st17">Castions:</text>
				<text transform="matrix(0.4062 0.8031 -0.9049 0.4256 397.6149 403.9803)" class="st16 st17"> </text>
				<text transform="matrix(0.4062 0.8031 -0.9049 0.4256 400.9747 410.6234)" class="st16 st17">38</text>
			</g>
			<g class="st15">
				<polygon class="st2" points="383,386.2 407.4,447.2 399.9,450 375.5,388.9 				"/>
				<text transform="matrix(0.3329 0.8362 -0.9378 0.3472 378.4265 387.8436)" class="st16 st17">Edison</text>
				<text transform="matrix(0.3329 0.8362 -0.9378 0.3472 384.8235 403.9141)" class="st16 st17"> </text>
				<text transform="matrix(0.3329 0.8362 -0.9378 0.3472 387.3397 410.2354)" class="st16 st17">Torviscosa:</text>
				<text transform="matrix(0.3329 0.8362 -0.9378 0.3472 397.8954 436.7558)" class="st16 st17"> </text>
				<text transform="matrix(0.3329 0.8362 -0.9378 0.3472 400.4123 443.0789)" class="st16 st17">39</text>
			</g>
			<g class="st15">
				<polygon class="st2" points="374.1,391.8 385.3,427.1 377.7,429.3 366.5,394 				"/>
				<text transform="matrix(0.272 0.8579 -0.9592 0.2827 369.3251 393.2029)" class="st16 st17">Malisana:</text>
				<text transform="matrix(0.272 0.8579 -0.9592 0.2827 376.5665 416.0433)" class="st16 st17"> </text>
				<text transform="matrix(0.272 0.8579 -0.9592 0.2827 378.5988 422.4535)" class="st16 st17">41</text>
			</g>
			<g class="st15">
				<polygon class="st2" points="363.7,392.1 371.6,427.9 363.8,429.5 356,393.7 				"/>
				<text transform="matrix(0.1937 0.8789 -0.9796 0.2008 358.7856 393.1774)" class="st16 st17">Morsano:</text>
				<text transform="matrix(0.1937 0.8789 -0.9796 0.2008 364.0148 416.9029)" class="st16 st17"> </text>
				<text transform="matrix(0.1937 0.8789 -0.9796 0.2008 365.3016 422.7413)" class="st16 st17">39</text>
			</g>
			<g class="st15">
				<polygon class="st2" points="356.8,417.6 360.6,447.1 352.7,448 348.9,418.6 				"/>
				<text transform="matrix(0.1137 0.8928 -0.9931 0.1176 351.8487 418.2414)" class="st16 st17">Porcia:</text>
				<text transform="matrix(0.1137 0.8928 -0.9931 0.1176 354.0685 435.6837)" class="st16 st17"> </text>
				<text transform="matrix(0.1137 0.8928 -0.9931 0.1176 354.7888 441.3402)" class="st16 st17">59</text>
			</g>
			<g class="st15">
				<polygon class="st2" points="344.1,402.2 346.4,467 338.5,467.3 336.1,402.5 				"/>
				<text transform="matrix(3.257220e-02 0.8994 -0.9994 3.365294e-02 339.0241 402.4289)" class="st16 st17">Pordenone</text>
				<text transform="matrix(3.257220e-02 0.8994 -0.9994 3.365294e-02 340.0533 430.8458)" class="st16 st17"> </text>
				<text transform="matrix(3.257220e-02 0.8994 -0.9994 3.365294e-02 340.2425 436.0718)" class="st16 st17">Centro:</text>
				<text transform="matrix(3.257220e-02 0.8994 -0.9994 3.365294e-02 340.9515 455.6498)" class="st16 st17"> </text>
				<text transform="matrix(3.257220e-02 0.8994 -0.9994 3.365294e-02 341.1408 460.8769)" class="st16 st17">45</text>
			</g>
			<g class="st15">
				<polygon class="st2" points="324.9,449.9 326,421.3 333.9,421.6 332.9,450.2 				"/>
				<text transform="matrix(3.257220e-02 -0.8994 0.9994 3.365294e-02 329.9449 450.0595)" class="st16 st17">Sacile:</text>
				<text transform="matrix(3.257220e-02 -0.8994 0.9994 3.365294e-02 330.5369 433.7133)" class="st16 st17"> </text>
				<text transform="matrix(3.257220e-02 -0.8994 0.9994 3.365294e-02 330.7503 427.8206)" class="st16 st17">61</text>
			</g>
			<g class="st15">
				<polygon class="st2" points="307.7,467.5 316.9,395.4 324.8,396.3 315.6,468.3 				"/>
				<text transform="matrix(0.1137 -0.8928 0.9931 0.1176 312.7245 468.0367)" class="st16 st17">Via</text>
				<text transform="matrix(0.1137 -0.8928 0.9931 0.1176 313.7209 460.2112)" class="st16 st17"> </text>
				<text transform="matrix(0.1137 -0.8928 0.9931 0.1176 314.321 455.4983)" class="st16 st17">S.Daniele</text>
				<text transform="matrix(0.1137 -0.8928 0.9931 0.1176 317.3819 431.4575)" class="st16 st17"> </text>
				<text transform="matrix(0.1137 -0.8928 0.9931 0.1176 317.9821 426.7436)" class="st16 st17">(Udine):</text>
				<text transform="matrix(0.1137 -0.8928 0.9931 0.1176 320.5028 406.9464)" class="st16 st17"> </text>
				<text transform="matrix(0.1137 -0.8928 0.9931 0.1176 321.103 402.2325)" class="st16 st17">40</text>
			</g>
			<g class="st15">
				<polygon class="st2" points="252.9,433.5 270.3,399.1 277.4,402.4 260,436.8 				"/>
				<text transform="matrix(0.4062 -0.8031 0.9049 0.4256 257.3554 435.5952)" class="st16 st17">Brugnera:</text>
				<text transform="matrix(0.4062 -0.8031 0.9049 0.4256 268.7109 413.1427)" class="st16 st17"> </text>
				<text transform="matrix(0.4062 -0.8031 0.9049 0.4256 271.9004 406.8363)" class="st16 st17">55</text>
			</g>
			<g class="st15">
				<polygon class="st2" points="256.4,399.5 272.2,374.2 279,378.1 263.2,403.5 				"/>
				<text transform="matrix(0.476 -0.7638 0.8653 0.5013 260.6311 402.0079)" class="st16 st17">Porcia:</text>
				<text transform="matrix(0.476 -0.7638 0.8653 0.5013 269.8204 387.2627)" class="st16 st17"> </text>
				<text transform="matrix(0.476 -0.7638 0.8653 0.5013 273.1483 381.9228)" class="st16 st17">36</text>
			</g>
			<g class="st15">
				<polygon class="st2" points="239,402.6 256.4,379.5 262.8,384 245.4,407.2 				"/>
				<text transform="matrix(0.5416 -0.7188 0.819 0.5738 242.9513 405.4057)" class="st16 st17">Sacile:</text>
				<text transform="matrix(0.5416 -0.7188 0.819 0.5738 252.6361 392.5504)" class="st16 st17"> </text>
				<text transform="matrix(0.5416 -0.7188 0.819 0.5738 256.6342 387.2457)" class="st16 st17">47</text>
			</g>
			<g class="st15">
				<polygon class="st2" points="177.8,382.3 210,359.8 214.6,366.1 182.5,388.5 				"/>
				<text transform="matrix(0.7371 -0.5164 0.6018 0.7986 180.645 386.0737)" class="st16 st17">Brugnera:</text>
				<text transform="matrix(0.7371 -0.5164 0.6018 0.7986 200.8332 371.9305)" class="st16 st17"> </text>
				<text transform="matrix(0.7371 -0.5164 0.6018 0.7986 207.7138 367.1101)" class="st16 st17">63</text>
			</g>
			<g class="st15">
				<polygon class="st2" points="190.1,357.6 222.5,338.8 226.6,345.4 194.1,364.1 				"/>
				<text transform="matrix(0.7787 -0.4512 0.5288 0.8487 192.4816 361.5057)" class="st16 st17">Morsano:</text>
				<text transform="matrix(0.7787 -0.4512 0.5288 0.8487 212.8634 349.6957)" class="st16 st17"> </text>
				<text transform="matrix(0.7787 -0.4512 0.5288 0.8487 219.6312 345.7753)" class="st16 st17">45</text>
			</g>
			<g class="st15">
				<polygon class="st2" points="197.8,339 225.6,326 229,332.9 201.4,345.9 				"/>
				<text transform="matrix(0.8144 -0.383 0.4513 0.8924 199.949 343.1302)" class="st16 st17">Porcia:</text>
				<text transform="matrix(0.8144 -0.383 0.4513 0.8924 215.3073 335.908)" class="st16 st17"> </text>
				<text transform="matrix(0.8144 -0.383 0.4513 0.8924 222.0321 332.7457)" class="st16 st17">38</text>
			</g>
			<g class="st15">
				<polygon class="st2" points="158,341.1 220.7,317.9 223.6,325 160.9,348.2 				"/>
				<text transform="matrix(0.844 -0.3124 0.3699 0.9291 159.673 345.2983)" class="st16 st17">Pordenone</text>
				<text transform="matrix(0.844 -0.3124 0.3699 0.9291 185.3303 335.8016)" class="st16 st17"> </text>
				<text transform="matrix(0.844 -0.3124 0.3699 0.9291 192.1945 333.2608)" class="st16 st17">Centro:</text>
				<text transform="matrix(0.844 -0.3124 0.3699 0.9291 209.872 326.7177)" class="st16 st17"> </text>
				<text transform="matrix(0.844 -0.3124 0.3699 0.9291 216.7371 324.1766)" class="st16 st17">39</text>
			</g>
			<g class="st15">
				<polygon class="st2" points="176,320.2 204.5,311.7 206.8,319.1 178.4,327.4 				"/>
				<text transform="matrix(0.8633 -0.2545 0.3022 0.9532 177.4404 324.4583)" class="st16 st17">Sacile:</text>
				<text transform="matrix(0.8633 -0.2545 0.3022 0.9532 192.5123 320.016)" class="st16 st17"> </text>
				<text transform="matrix(0.8633 -0.2545 0.3022 0.9532 199.9601 317.8207)" class="st16 st17">50</text>
			</g>
			<g class="st15">
				<polygon class="st2" points="185.1,268.5 214.8,269.5 214.6,277.1 184.9,276.2 				"/>
				<text transform="matrix(0.8995 3.028707e-02 -3.619087e-02 0.9993 185.0043 272.9955)" class="st16 st17">Sacile:</text>
				<text transform="matrix(0.8995 3.028707e-02 -3.619087e-02 0.9993 200.6556 273.5226)" class="st16 st17"> </text>
				<text transform="matrix(0.8995 3.028707e-02 -3.619087e-02 0.9993 208.573 273.7891)" class="st16 st17">38</text>
			</g>
			<g class="st15">
				<polygon class="st2" points="174.5,213.7 211.5,227.4 208.7,234.5 171.6,220.8 				"/>
				<text transform="matrix(0.844 0.3124 -0.3699 0.9291 172.746 217.8985)" class="st16 st17">Brugnera:</text>
				<text transform="matrix(0.844 0.3124 -0.3699 0.9291 195.6575 226.379)" class="st16 st17"> </text>
				<text transform="matrix(0.844 0.3124 -0.3699 0.9291 204.0658 229.4913)" class="st16 st17">49</text>
			</g>
			<g class="st15">
				<polygon class="st2" points="194.3,207.5 228.3,223.6 224.9,230.4 190.7,214.5 				"/>
				<text transform="matrix(0.8144 0.383 -0.4513 0.8924 192.2007 211.6619)" class="st16 st17">Morsano:</text>
				<text transform="matrix(0.8144 0.383 -0.4513 0.8924 213.4535 221.656)" class="st16 st17"> </text>
				<text transform="matrix(0.8144 0.383 -0.4513 0.8924 220.7583 225.0913)" class="st16 st17">38</text>
			</g>
			<g class="st15">
				<polygon class="st2" points="205.7,199.5 231.2,214.1 227,220.7 201.6,206 				"/>
				<text transform="matrix(0.7787 0.4512 -0.5288 0.8487 203.2597 203.3414)" class="st16 st17">Sacile:</text>
				<text transform="matrix(0.7787 0.4512 -0.5288 0.8487 216.954 211.2764)" class="st16 st17"> </text>
				<text transform="matrix(0.7787 0.4512 -0.5288 0.8487 223.4036 215.0135)" class="st16 st17">40</text>
			</g>
			<g class="st15">
				<polygon class="st2" points="211.1,131.2 236.6,160.5 230.5,165.4 205,136.1 				"/>
				<text transform="matrix(0.5908 0.6789 -0.7774 0.629 207.3627 134.174)" class="st16 st17">Brugnera:</text>
				<text transform="matrix(0.5908 0.6789 -0.7774 0.629 223.7137 152.9627)" class="st16 st17"> </text>
				<text transform="matrix(0.5908 0.6789 -0.7774 0.629 228.7961 158.8044)" class="st16 st17">67</text>
			</g>
			<g class="st15">
				<polygon class="st2" points="246.4,151.9 268.9,181.7 262.4,186.2 240,156.4 				"/>
				<text transform="matrix(0.5416 0.7188 -0.819 0.5738 242.3734 154.6164)" class="st16 st17">Malisana:</text>
				<text transform="matrix(0.5416 0.7188 -0.819 0.5738 256.6196 173.524)" class="st16 st17"> </text>
				<text transform="matrix(0.5416 0.7188 -0.819 0.5738 261.1241 179.5023)" class="st16 st17">37</text>
			</g>
			<g class="st15">
				<polygon class="st2" points="249.4,132.2 269,163.5 262.2,167.5 242.6,136.2 				"/>
				<text transform="matrix(0.476 0.7638 -0.8653 0.5013 245.1822 134.6675)" class="st16 st17">Morsano:</text>
				<text transform="matrix(0.476 0.7638 -0.8653 0.5013 257.8996 155.0718)" class="st16 st17"> </text>
				<text transform="matrix(0.476 0.7638 -0.8653 0.5013 261.3763 160.6503)" class="st16 st17">50</text>
			</g>
			<g class="st15">
				<polygon class="st2" points="271.8,144.9 285.3,171.5 278.1,174.9 264.6,148.3 				"/>
				<text transform="matrix(0.4062 0.8031 -0.9049 0.4256 267.3315 146.9867)" class="st16 st17">Porcia:</text>
				<text transform="matrix(0.4062 0.8031 -0.9049 0.4256 275.1979 162.5435)" class="st16 st17"> </text>
				<text transform="matrix(0.4062 0.8031 -0.9049 0.4256 277.964 168.0095)" class="st16 st17">38</text>
			</g>
			<g class="st15">
				<polygon class="st2" points="269.3,105.3 293.3,165.8 285.9,168.6 261.9,108.1 				"/>
				<text transform="matrix(0.3329 0.8362 -0.9378 0.3472 264.5822 107.0375)" class="st16 st17">Pordenone</text>
				<text transform="matrix(0.3329 0.8362 -0.9378 0.3472 275.0336 133.2936)" class="st16 st17"> </text>
				<text transform="matrix(0.3329 0.8362 -0.9378 0.3472 277.0963 138.4753)" class="st16 st17">Centro:</text>
				<text transform="matrix(0.3329 0.8362 -0.9378 0.3472 284.2972 156.5655)" class="st16 st17"> </text>
				<text transform="matrix(0.3329 0.8362 -0.9378 0.3472 286.3239 161.6595)" class="st16 st17">40</text>
			</g>
			<g class="st15">
				<polygon class="st2" points="290.4,120.4 299,147.8 291.4,150 282.8,122.6 				"/>
				<text transform="matrix(0.272 0.8579 -0.9592 0.2827 285.545 121.8513)" class="st16 st17">Sacile:</text>
				<text transform="matrix(0.272 0.8579 -0.9592 0.2827 290.4669 137.3789)" class="st16 st17"> </text>
				<text transform="matrix(0.272 0.8579 -0.9592 0.2827 292.3 143.1577)" class="st16 st17">53</text>
			</g>
			<line class="st18" x1="337.8" y1="224.1" x2="337.8" y2="224.1"/>
			<line class="st18" x1="377.8" y1="243" x2="377.8" y2="243"/>
			<line class="st19" x1="377.8" y1="312.2" x2="377.8" y2="312.2"/>
			<line class="st19" x1="280.1" y1="275.4" x2="280.1" y2="275.4"/>
			<g class="st20">
				<text transform="matrix(1.037 0 0 1 330.9208 227.7878)" class="st21 st22">2006</text>
			</g>
			<g class="st20">
				<text transform="matrix(1.037 0 0 1 351.9677 235.5945)" class="st21 st22">2007</text>
			</g>
			<g class="st20">
				<text transform="matrix(1.037 0 0 1 366.8339 247.3591)" class="st21 st22">2008</text>
			</g>
			<g class="st20">
				<text transform="matrix(1.037 0 0 1 375.6693 295.2493)" class="st21 st22">2012</text>
			</g>
			<g class="st20">
				<text transform="matrix(1.037 0 0 1 363.0546 313.0178)" class="st21 st22">2013</text>
			</g>
			<g class="st20">
				<text transform="matrix(1.037 0 0 1 340.1952 329.6584)" class="st21 st22">2015</text>
			</g>
			<g class="st20">
				<text transform="matrix(1.037 0 0 1 302.1601 324.6721)" class="st21 st22">2016</text>
			</g>
			<g class="st20">
				<text transform="matrix(1.037 0 0 1 285.706 301.4329)" class="st21 st22">2017</text>
			</g>
			<g class="st20">
				<text transform="matrix(1.037 0 0 1 278.5819 277.5325)" class="st21 st22">2018</text>
			</g>
			<g class="st20">
				<text transform="matrix(1.037 0 0 1 285.3505 256.3474)" class="st21 st22">2019</text>
			</g>
			<g class="st20">
				<text transform="matrix(1.037 0 0 1 305.0019 234.6697)" class="st21 st22">2020</text>
			</g>
		</g>
		<path class="st23" d="M381.4,312.7"/>
		<path class="st24" d="M285.3,245.9c-2.1,3.4-4.2,7.5-6,12.4"/>
		<path class="st24" d="M276.1,273.3c-0.2,1.3-0.3,2.7-0.4,4.2"/>
		<path class="st24" d="M277.7,292.1c1.4,5.3,4.2,12.8,10.3,20.5"/>
		<path class="st24" d="M299,323.6c3.1,2.1,7.2,4.6,12.3,6.8"/>
		<path class="st24" d="M325.8,334.6c8.1,0.5,25.4,3.2,42-8.8"/>
		<path class="st24" d="M379.8,316.9c0.9-1.1,1.8-2.1,2.7-3.2"/>
		<path class="st24" d="M390.4,301.2c1.6-3.6,3.3-8.3,4.2-13.9"/>
		<path class="st24" d="M395.5,272.8c-0.4-4.7-1.6-11.2-5-18.4"/>
		<path class="st24" d="M382.8,241.5c-0.9-1-1.8-1.8-2.8-2.8"/>
		<path class="st24" d="M367.8,228.8c-3.4-2.5-7.4-4.7-12-6.1"/>
		<path class="st24" d="M340.3,220.1c-1.4-0.2-2.8-0.3-4.3-0.4"/>
		<path class="st24" d="M321.2,221.4c-5.2,1-17.4,5.3-25.8,13.3"/>
	</g>
	<g class="st20">
		<text transform="matrix(1.037 0 0 1 378.3764 268.4773)" class="st21 st22">2011</text>
	</g>
</g>
</svg>
